# xmcd
#
# Track frame offsets: 
#        150
#        28752
#        54795
#        82696
#        113872
#        136612
#        184358
#        221616
#        248972
#        285494
#
# Disc length: 4157 seconds
#
# Revision: 0
# Processed by: cddbd v1.5.2PL0 Copyright (c) Steve Scherf et al.
# Submitted via: ExactAudioCopy v0.95b2
#
DISCID=81103b0a
DTITLE=Tracy Conover - Live at the Saxon Pub disc 1
DYEAR=2003
DGENRE=blues
TTITLE0=I Gotta See My Man
TTITLE1=Garden of Color
TTITLE2=Big Boss Man
TTITLE3=Mean Old World
TTITLE4=There for Me
TTITLE5=The Thrill Is Gone
TTITLE6=Tober's Bitchin' Tune
TTITLE7=I Want to be an Angel
TTITLE8=Escape
TTITLE9=Sidetracked
EXTD=
EXTT0=
EXTT1=
EXTT2=
EXTT3=
EXTT4=
EXTT5=
EXTT6=
EXTT7=
EXTT8=
EXTT9=
PLAYORDER=
